<svg id="card_svg" xmlns="http://www.w3.org/2000/svg" xmlns:xlink="http://www.w3.org/1999/xlink" version="1.1" x="0px" y="0px" viewBox="0 0 309.948 204.257" enable-background="new 0 0 309.948 204.257" xml:space="preserve"><g> <g> <path fill="#6696C1" d="M284.929,204.237l-259.893,0.02c-13.819,0-25.022-11.201-25.024-25.021L0,25.045    C0,11.226,11.202,0.021,25.021,0.02L284.913,0c13.82,0,25.022,11.202,25.024,25.021l0.011,154.192    C309.95,193.033,298.749,204.236,284.929,204.237z"></path> </g> <g opacity="0.13"> <g> <path fill="#334C60" d="M0.009,137.621l0.346,44.502c0.001,9.366,10.862,22.134,24.682,22.134l259.892-0.02 c13.82-0.001,23.276-9.118,23.275-18.485l1.743-50.984L0.008,134.792L0.009,137.621z"></path> </g> </g> <g> <g> <path fill="#FFFFF0" d="M77.304,79.723l-33.723,0.003c-1.793,0-3.248-1.723-3.248-3.847l-0.002-23.706 c0-2.124,1.454-3.847,3.247-3.847l33.723-0.002c1.793,0,3.247,1.721,3.248,3.846l0.001,23.705 C80.55,78.001,79.097,79.724,77.304,79.723z"></path> </g> <g opacity="0.71"> <g> <g> <rect x="70.875" y="55.253" fill="#59595B" width="0.735" height="24.509"></rect> </g> </g> <g> <g> <rect x="48.871" y="48.197" fill="#59595B" width="0.734" height="31.469"></rect> </g> </g> <g> <g> <rect x="71.228" y="58.39" fill="#59595B" width="9.455" height="0.784"></rect> </g> </g> <g> <g> <rect x="71.228" y="65.644" fill="#59595B" width="9.456" height="0.785"></rect> </g> </g> <g> <g> <rect x="71.228" y="71.919" fill="#59595B" width="9.457" height="0.784"></rect> </g> </g> <g> <g> <rect x="40.332" y="57.412" fill="#59595B" width="8.814" height="0.784"></rect> </g> </g> <g> <g> <rect x="54.976" y="54.028" fill="#59595B" width="10.283" height="0.784"></rect> </g> </g> <g> <g> <rect x="54.977" y="73.684" fill="#59595B" width="10.283" height="0.784"></rect> </g> </g> </g> </g> <g> <g> <g> <rect x="228.275" y="156.061" fill="#FFFFF0" width="4.366" height="12.436"></rect> </g> <g> <rect x="235.58" y="156.06" fill="#FFFFF0" width="4.367" height="12.437"></rect> </g> <g> <rect x="242.885" y="156.059" fill="#FFFFF0" width="4.366" height="12.436"></rect> </g> </g> <g> <g> <rect x="250.19" y="156.058" fill="#FFFFF0" width="4.366" height="12.437"></rect> </g> <g> <rect x="257.495" y="156.059" fill="#FFFFF0" width="4.365" height="12.436"></rect> </g> <g> <rect x="264.8" y="156.059" fill="#FFFFF0" width="4.365" height="12.435"></rect> </g> </g> </g> <g> <rect x="39.87" y="106.588" fill="#FFFFF0" width="244.181" height="13.99"></rect> </g> </g> </svg>