<svg id="qiwi_svg" version="1.1" xmlns="http://www.w3.org/2000/svg" xmlns:xlink="http://www.w3.org/1999/xlink" x="0px" y="0px" viewBox="161.25 216.75 177.5 65.392" enable-background="new 161.25 216.75 177.5 65.392" xml:space="preserve"><g><path fill="#FF8C00" d="M278.893,231.441v29.992c0,0.476-0.355,0.831-0.831,0.831h-6.117c-0.476,0-0.831-0.355-0.831-0.831v-29.992  c0-0.475,0.355-0.832,0.831-0.832h6.117C278.537,230.669,278.893,231.025,278.893,231.441z M326.643,230.669h-6.83  c-0.356,0-0.653,0.237-0.772,0.594l-5.404,17.757l-5.938-17.757c-0.119-0.356-0.416-0.535-0.772-0.535h-4.811  c-0.356,0-0.653,0.238-0.772,0.535l-5.938,17.757l-5.404-17.757c-0.119-0.356-0.416-0.594-0.772-0.594h-6.83  c-0.236,0-0.534,0.119-0.652,0.356c-0.179,0.238-0.179,0.475-0.119,0.713l10.096,30.051c0.119,0.355,0.416,0.534,0.772,0.534h5.464  c0.356,0,0.653-0.237,0.772-0.534l5.879-17.52l5.88,17.52c0.119,0.355,0.416,0.534,0.771,0.534h5.465 c0.355,0,0.652-0.237,0.771-0.534l10.097-30.051c0.059-0.238,0.059-0.535-0.119-0.713 C327.177,230.788,326.939,230.669,326.643,230.669z M336.976,230.669h-6.117c-0.475,0-0.831,0.356-0.831,0.831v29.992 c0,0.475,0.356,0.831,0.831,0.831h6.117c0.476,0,0.832-0.356,0.832-0.831V231.5C337.808,231.025,337.392,230.669,336.976,230.669z  M267.609,261.254c0.355,0.416,0.059,1.01-0.476,1.01h-7.483c-0.297,0-0.594-0.119-0.771-0.355l-1.248-1.545 c-2.612,1.663-5.701,2.673-8.967,2.673c-9.146,0-16.569-7.424-16.569-16.57s7.423-16.57,16.569-16.57s16.57,7.424,16.57,16.57  c0,3.267-0.95,6.354-2.613,8.967L267.609,261.254z M252.702,254.603l-3.267-3.979c-0.356-0.415-0.059-1.068,0.476-1.068h6.89  c0.355-0.95,0.533-2.02,0.533-3.088c0-4.929-3.682-9.206-8.729-9.206c-5.048,0-8.73,4.276-8.73,9.206s3.682,9.146,8.73,9.146  C250.089,255.672,251.455,255.256,252.702,254.603z M213.149,261.136c0.178,1.247-0.238,1.781-0.594,1.781  c-0.416,0-0.95-0.534-1.604-1.484c-0.653-1.01-0.891-2.138-0.534-2.673c0.178-0.355,0.653-0.534,1.188-0.355 C212.614,258.76,213.03,260.363,213.149,261.136z M207.269,263.809c1.248,1.068,1.663,2.375,1.01,3.266 c-0.356,0.476-0.95,0.772-1.722,0.772c-0.713,0-1.425-0.237-1.96-0.713c-1.128-1.01-1.485-2.673-0.712-3.563  c0.297-0.356,0.772-0.534,1.366-0.534C205.903,263.036,206.616,263.333,207.269,263.809z M205.131,274.201  c5.464,0,11.403,1.9,17.995,7.721c0.653,0.594,1.544-0.119,0.95-0.891c-6.474-8.137-12.413-9.681-18.352-10.987  c-7.305-1.604-11.046-5.701-13.66-10.215c-0.534-0.892-0.772-0.713-0.772,0.415c-0.06,1.426,0.06,3.268,0.356,5.107l0,0  c-0.297,0-0.594,0-0.891,0c-10.393,0-18.886-8.433-18.886-18.885c0-10.393,8.434-18.886,18.886-18.886  c10.453,0,18.886,8.433,18.886,18.886c0,0.713-0.06,1.485-0.119,2.197c-1.366-0.237-4.098-0.297-5.998-0.119  c-0.713,0.06-0.594,0.416-0.06,0.475c6.236,1.128,10.512,4.989,11.521,11.997c0,0.179,0.238,0.237,0.297,0.06  c2.554-4.275,4.039-9.265,4.039-14.669c0-15.738-12.769-28.566-28.566-28.566c-15.797,0-28.566,12.769-28.566,28.566  c0,15.738,12.769,28.566,28.566,28.566C194.917,275.033,199.074,274.201,205.131,274.201z"></path></g></svg>